<svg xmlns="http://www.w3.org/2000/svg" width="37" height="33"><path fill="#00449C" d="M35.726 20.965H11.568V10.439h1.869c.509 0 .934-.302 1.103-.82l1.953-5.866c.255-.777-.297-1.553-1.103-1.553H9.36V1.078a1.06 1.06 0 10-2.122 0V2.2H1.167C.36 2.2-.192 3.02.063 3.753L2.016 9.62c.17.474.594.82 1.104.82h1.868v10.482h-2.59c-.722 0-1.274.603-1.274 1.294v9.49c0 .733.595 1.294 1.274 1.294h33.328c.722 0 1.274-.604 1.274-1.294v-9.49c0-.69-.594-1.251-1.274-1.251zM9.318 4.4v2.545H7.195V4.4h2.123zm3.864 2.545h-1.74V4.4h2.589l-.85 2.545zM5.072 4.4v2.545h-1.74L2.482 4.4h2.59zm7.133 23.596c0 .431-.34.777-.764.777H7.408a.768.768 0 01-.765-.777V25.97c0-.432.34-.777.765-.777h4.033c.425 0 .764.345.764.777v2.027zm9.596 0c0 .431-.34.777-.765.777h-4.033a.767.767 0 01-.764-.777V25.97c0-.432.34-.777.764-.777h4.033c.425 0 .765.345.765.777v2.027zm9.595 0c0 .431-.34.777-.764.777h-4.034a.768.768 0 01-.764-.777V25.97c0-.432.34-.777.764-.777h4.034c.424 0 .764.345.764.777v2.027z"/></svg>