<svg xmlns="http://www.w3.org/2000/svg" width="26" height="24"><path fill="#00449C" d="M25.105 14.732H8.129V7.336h1.313c.358 0 .656-.213.776-.576l1.372-4.123a.82.82 0 00-.776-1.091H6.578V.758C6.578.333 6.25 0 5.832 0s-.746.333-.746.758v.788H.82a.83.83 0 00-.776 1.091L1.416 6.76c.12.333.418.576.776.576h1.313v7.366h-1.82a.905.905 0 00-.895.909v6.669c0 .515.418.91.895.91h23.42a.906.906 0 00.895-.91v-6.67c0-.485-.418-.879-.895-.879zM6.548 3.092V4.88H5.056V3.092h1.492zM9.263 4.88H8.04V3.092h1.82L9.263 4.88zM3.565 3.092V4.88H2.34l-.596-1.788h1.82zm5.012 16.58a.54.54 0 01-.537.547H5.205a.54.54 0 01-.537-.546v-1.425a.54.54 0 01.537-.545H8.04c.298 0 .537.242.537.545v1.425zm6.742 0a.54.54 0 01-.537.547h-2.834a.54.54 0 01-.537-.546v-1.425c0-.303.239-.545.537-.545h2.834c.299 0 .537.242.537.545v1.425zm6.743 0a.54.54 0 01-.537.547H18.69a.54.54 0 01-.537-.546v-1.425c0-.303.238-.545.537-.545h2.834c.298 0 .537.242.537.545v1.425z"/></svg>