<svg xmlns="http://www.w3.org/2000/svg" width="16" height="16"><path fill="#FFF" d="M12 0a.571.571 0 100 1.143A2.86 2.86 0 0114.857 4v6.023a3.413 3.413 0 00-2.286-.88A3.432 3.432 0 009.194 12H6.805a3.43 3.43 0 00-3.377-2.857 3.41 3.41 0 00-2.285.88V4A2.86 2.86 0 014 1.143.571.571 0 004 0C1.795 0 0 1.795 0 4v8.571A3.432 3.432 0 003.428 16a3.43 3.43 0 003.377-2.857h2.39A3.43 3.43 0 0012.572 16 3.432 3.432 0 0016 12.571V4c0-2.205-1.795-4-4-4zM3.428 14.857a2.288 2.288 0 01-2.285-2.286 2.288 2.288 0 012.285-2.285 2.288 2.288 0 012.286 2.285 2.288 2.288 0 01-2.286 2.286zm9.143 0a2.289 2.289 0 01-2.286-2.286 2.288 2.288 0 012.286-2.285 2.288 2.288 0 012.286 2.285 2.288 2.288 0 01-2.286 2.286z" opacity=".897"/></svg>