<svg xmlns="http://www.w3.org/2000/svg" xmlns:xlink="http://www.w3.org/1999/xlink" width="39" height="53"><defs><path id="a" d="M.406 3.163C-.779 6.775 12.534 7.91 10.572 12.5c.236-.493.67-1.233.906-1.72C13.605 5.814.006 4.613 1.351.372c-.318.943-.631 1.875-.945 2.79z"/><path id="c" d="M.452 3.183c-1.496 4.704 12.041 6.507 9.677 11.883.382-.573.849-1.408 1.12-2.042C13.485 7.656.046 5.004 1.597.134 1.243 1.179.793 2.169.452 3.183z"/><path id="e" d="M.194 3.016C-1.194 7.362 12.268 8.155 9.91 13.63c.29-.567.85-1.322 1.114-1.934C13.3 6.398-.2 4.655 1.253.11c-.339.994-.73 1.94-1.06 2.906z"/><path id="g" d="M13.047 4.822c-4.492.624-10.75 1.31-11.758 4.036-.318.91-.636 1.811-.944 2.705.787-2.13 4.322-2.311 7.562-2.427 3.237-.115 8.133-.325 10.697-1.531 2.362-1.112 4.618-4.467 5.876-7.436-2.186 3.303-6.92 4.027-11.433 4.654z"/><path id="i" d="M13.526 7.293C8.081 8.81 2.207 10.19 1.132 13.071c-.34.962-.674 1.916-1.003 2.854.666-1.787 3.694-2.649 6.586-3.236 2.903-.588 6.371-.897 9.355-1.604 2.684-.636 4.858-1.893 6.666-3.666 1.846-1.81 3.338-4.192 4.613-7.05-2.465 3.7-8.296 5.386-13.823 6.924z"/><path id="k" d="M1.37 15.53L.333 18.525c1.002-2.78 5.635-3.835 9.124-4.898C17.743 11.103 21.146 9.95 23.934.163 19.522 8.328 3.757 9.043 1.37 15.53z"/><path id="m" d="M7.327 2.572c-2.405-.031-4.758-.063-6.286.818-.722.417-.781.947-.93 1.394 1.14-.77 3.363-.676 5.771-.583 3.58.139 7.564.277 8.995-2.417.273-.52.548-1.218.829-1.748-1.392 2.627-4.939 2.582-8.38 2.536z"/><path id="o" d="M.906 5.247c-.522.446-.588.877-.729 1.322 3.172-2.449 13.024.48 15.457-4.227.341-.66.64-1.522.816-2.03C13.67 5.477 4.883 1.857.906 5.247z"/><path id="q" d="M1.11 5.905C.57 6.382.43 7.057.259 7.567c3.179-3.304 13.527-.55 16.253-5.559.303-.558.543-1.38.852-1.95C14.55 5.231 4.997 2.474 1.11 5.905z"/></defs><g fill="none" fill-rule="evenodd"><path fill="#00357A" d="M4.086 36.68A15.942 15.942 0 010 26c0-8.837 7.163-16 16-16s16 7.163 16 16c0 2.987-.818 5.783-2.243 8.175h.027l-.14.187a16.117 16.117 0 01-1.762 2.354l-12.02 16.057L4.086 36.68z"/><path fill="#024997" d="M11.476 23.113c-.318.944-.632 1.876-.944 2.791-1.186 3.612 12.127 4.747 10.165 9.337.236-.493.67-1.233.906-1.72 2.127-4.965-11.473-6.166-10.127-10.408"/><g transform="translate(10.125 22.741)"><mask id="b" fill="#fff"><use xlink:href="#a"/></mask><path fill="#1594D5" d="M-2.492 12.253l15.804 2.278L15.318.619-.486-1.66z" mask="url(#b)"/></g><path fill="#024997" d="M14.347 15.375c-.354 1.045-.804 2.035-1.146 3.049-1.495 4.704 12.042 6.508 9.678 11.883.382-.572.85-1.408 1.12-2.042 2.236-5.367-11.203-8.02-9.652-12.89"/><g transform="translate(12.75 15.242)"><mask id="d" fill="#fff"><use xlink:href="#c"/></mask><path fill="#1594D5" d="M-3.658 14.593l16.683 3.016L16.099.606-.584-2.41z" mask="url(#d)"/></g><path fill="#024997" d="M12.877 19.476c-.337.994-.729 1.94-1.059 2.907-1.386 4.345 12.075 5.138 9.717 10.613.29-.568.85-1.323 1.114-1.934 2.275-5.298-11.224-7.041-9.772-11.586"/><g transform="translate(11.625 19.366)"><mask id="f" fill="#fff"><use xlink:href="#e"/></mask><path fill="#1594D5" d="M-3.344 13.278l16.267 2.657L15.45.461-.817-2.196z" mask="url(#f)"/></g><path fill="#8CCCED" d="M10.47 26.055c.308-.894.626-1.796.944-2.706 1.008-2.725 7.266-3.411 11.758-4.035 4.512-.627 9.247-1.35 11.433-4.653-1.258 2.969-3.514 6.324-5.876 7.435-2.564 1.206-7.46 1.416-10.697 1.532-3.24.115-6.775.297-7.562 2.427"/><g transform="translate(10.125 14.492)"><mask id="h" fill="#fff"><use xlink:href="#g"/></mask><path fill="#8CCCED" d="M-1.015 11.399l25.146 3.044L25.84.334.694-2.711z" mask="url(#h)"/></g><path fill="#8CCCED" d="M11.754 22.542c.328-.938.664-1.892 1.003-2.855 1.076-2.881 6.948-4.26 12.394-5.777 5.527-1.539 11.358-3.225 13.823-6.924-1.275 2.858-2.767 5.24-4.613 7.05-1.808 1.773-3.982 3.03-6.666 3.666-2.984.707-6.451 1.015-9.355 1.604-2.892.587-5.92 1.449-6.586 3.236"/><g transform="translate(11.625 6.617)"><mask id="j" fill="#fff"><use xlink:href="#i"/></mask><path fill="#8CCCED" d="M-2.103 15.598l28.88 4.233L29.581.697.702-3.536z" mask="url(#j)"/></g><path fill="#8CCCED" d="M13.083 18.767l1.037-2.997C16.507 9.285 32.273 8.57 36.684.404c-2.788 9.787-6.192 10.94-14.477 13.464-3.49 1.064-8.122 2.118-9.124 4.899"/><g transform="translate(12.75 .241)"><mask id="l" fill="#fff"><use xlink:href="#k"/></mask><path fill="#8CCCED" d="M-3.191 17.822l26.222 5.232L27.458.866 1.236-4.367z" mask="url(#l)"/></g><path fill="#8CCCED" d="M7.041 36.632c3.714-2.142 12.3 1.11 14.665-3.355-.28.53-.556 1.23-.829 1.748-2.394 4.506-11.932 1.088-14.767 3 .15-.447.208-.977.931-1.393"/><g transform="translate(6 33.242)"><mask id="n" fill="#fff"><use xlink:href="#m"/></mask><path fill="#8CCCED" d="M-.375 6.252L15.611 7.5l.58-7.426L.205-1.174z" mask="url(#n)"/></g><path fill="#8CCCED" d="M7.281 35.489c3.977-3.39 12.763.23 15.544-4.936-.176.509-.474 1.37-.816 2.03-2.433 4.707-12.285 1.78-15.457 4.228.14-.446.207-.877.73-1.322"/><g transform="translate(6.375 30.241)"><mask id="p" fill="#fff"><use xlink:href="#o"/></mask><path fill="#8CCCED" d="M-.481 6.984l16.774 1.654.815-8.261L.334-1.278z" mask="url(#p)"/></g><path fill="#8CCCED" d="M7.86 33.896c3.887-3.43 13.44-.674 16.253-5.846-.309.57-.55 1.391-.852 1.95-2.726 5.008-13.074 2.255-16.253 5.56.172-.512.313-1.187.853-1.664"/><g transform="translate(6.75 27.991)"><mask id="r" fill="#fff"><use xlink:href="#q"/></mask><path fill="#8CCCED" d="M-.577 7.474l17.726 1.995L18.198.152.472-1.844z" mask="url(#r)"/></g></g></svg>